<svg width="259" height="56" viewBox="0 0 259 56" fill="none" xmlns="http://www.w3.org/2000/svg">
<path d="M55.9976 27.7029C55.9106 15.6827 53.6423 10.3946 49.6137 6.48596C45.4049 2.61836 38.5028 1 28.4988 1C19.3608 1 11.522 2.57398 7.49689 6.48596C3.82474 10.0549 1 15.1158 1 27.7029V47.7301C1 50.8777 1 52.4498 2.00714 53.4278C3.01429 54.4058 4.63328 54.4058 7.8747 54.4058H28.4988C41.4611 54.4058 46.7144 51.7451 50.0092 48.5484C53.7823 44.8877 56.0772 38.6943 55.9976 27.7029Z" fill="white" stroke="black" stroke-width="2"/>
<rect x="15.3481" y="24.1152" width="25.9058" height="22.3188" rx="11.1594" fill="#FFFC00" stroke="black" stroke-width="2"/>
<path fill-rule="evenodd" clip-rule="evenodd" d="M48.0289 25.8993C48.0289 38.5947 43.0459 42.8278 28.1013 42.8278C13.1568 42.8278 8.17383 38.5947 8.17383 25.8993C8.17383 13.2038 13.1568 8.9707 28.1013 8.9707C43.0459 8.9707 48.0289 13.2038 48.0289 25.8993Z" fill="#FFFC00" stroke="black" stroke-width="2" stroke-linecap="round" stroke-linejoin="round"/>
<path d="M78.04 40.36C77.08 40.36 76.3867 40.2267 75.96 39.96C75.5333 39.6667 75.2667 39.28 75.16 38.8C75.08 38.32 75.04 37.8267 75.04 37.32V15.44C75.04 14.2667 75.2667 13.4667 75.72 13.04C76.1733 12.6133 76.9867 12.4 78.16 12.4H93.28C93.8133 12.4 94.3067 12.4533 94.76 12.56C95.2133 12.64 95.5733 12.8933 95.84 13.32C96.1333 13.7467 96.28 14.4667 96.28 15.48C96.28 16.44 96.1333 17.1333 95.84 17.56C95.5467 17.9867 95.16 18.2533 94.68 18.36C94.2267 18.44 93.7333 18.48 93.2 18.48H81.12V23.64H89.32C89.8533 23.64 90.32 23.68 90.72 23.76C91.1467 23.84 91.48 24.0667 91.72 24.44C91.96 24.8133 92.08 25.44 92.08 26.32C92.08 27.1733 91.96 27.7867 91.72 28.16C91.48 28.5067 91.1467 28.72 90.72 28.8C90.32 28.88 89.84 28.92 89.28 28.92H81.12V37.36C81.12 37.8667 81.0667 38.36 80.96 38.84C80.8533 39.2933 80.5867 39.6667 80.16 39.96C79.76 40.2267 79.0533 40.36 78.04 40.36ZM107.086 40.36C105.992 40.36 105.019 40.2933 104.166 40.16C103.339 40.0533 102.619 39.84 102.006 39.52C101.419 39.2 100.939 38.76 100.566 38.2C100.192 37.64 99.9123 36.92 99.7256 36.04C99.5656 35.1333 99.4856 34.0267 99.4856 32.72V14.24C99.4856 13.7067 99.5256 13.2133 99.6056 12.76C99.7123 12.3067 99.979 11.9333 100.406 11.64C100.832 11.3467 101.526 11.2 102.486 11.2C103.446 11.2 104.126 11.3467 104.526 11.64C104.952 11.9333 105.219 12.3067 105.326 12.76C105.432 13.2133 105.486 13.7067 105.486 14.24V32.44C105.486 32.8667 105.499 33.2267 105.526 33.52C105.579 33.7867 105.659 34 105.766 34.16C105.899 34.32 106.072 34.4267 106.286 34.48C106.499 34.5333 106.779 34.56 107.126 34.56C107.446 34.56 107.766 34.6 108.086 34.68C108.432 34.76 108.726 35 108.966 35.4C109.206 35.8 109.326 36.4667 109.326 37.4C109.326 38.36 109.206 39.0533 108.966 39.48C108.726 39.9067 108.432 40.16 108.086 40.24C107.766 40.32 107.432 40.36 107.086 40.36ZM127.757 40.32C126.77 40.32 126.037 40.1467 125.557 39.8C125.104 39.4533 124.877 39.0267 124.877 38.52L125.277 37.84C125.117 38.1067 124.81 38.44 124.357 38.84C123.904 39.2133 123.317 39.56 122.597 39.88C121.877 40.1733 120.984 40.32 119.917 40.32C118.69 40.32 117.517 40.0533 116.397 39.52C115.304 38.9867 114.33 38.2533 113.477 37.32C112.624 36.36 111.944 35.28 111.437 34.08C110.957 32.88 110.717 31.6133 110.717 30.28C110.717 28.9733 110.957 27.7333 111.437 26.56C111.944 25.36 112.624 24.3067 113.477 23.4C114.357 22.4667 115.344 21.7333 116.437 21.2C117.53 20.6667 118.69 20.4 119.917 20.4C120.904 20.4 121.744 20.5467 122.437 20.84C123.13 21.1067 123.704 21.4267 124.157 21.8C124.637 22.1733 124.997 22.5333 125.237 22.88L124.917 22.32C124.89 21.68 125.104 21.2 125.557 20.88C126.037 20.5333 126.784 20.36 127.797 20.36C128.757 20.36 129.437 20.5067 129.837 20.8C130.264 21.0933 130.517 21.48 130.597 21.96C130.704 22.44 130.757 22.9467 130.757 23.48V37.28C130.757 37.7867 130.704 38.28 130.597 38.76C130.517 39.24 130.264 39.6267 129.837 39.92C129.437 40.1867 128.744 40.32 127.757 40.32ZM120.797 34.36C121.49 34.36 122.117 34.1867 122.677 33.84C123.264 33.4667 123.717 32.9733 124.037 32.36C124.384 31.7467 124.557 31.0667 124.557 30.32C124.557 29.5467 124.384 28.8667 124.037 28.28C123.69 27.6667 123.224 27.1867 122.637 26.84C122.05 26.4667 121.41 26.28 120.717 26.28C119.944 26.28 119.25 26.4667 118.637 26.84C118.05 27.2133 117.57 27.7067 117.197 28.32C116.85 28.9333 116.677 29.6267 116.677 30.4C116.677 31.12 116.85 31.7867 117.197 32.4C117.57 32.9867 118.064 33.4667 118.677 33.84C119.317 34.1867 120.024 34.36 120.797 34.36ZM141.176 40.68C140.456 40.68 139.669 40.6 138.816 40.44C137.989 40.28 137.176 40.0533 136.376 39.76C135.576 39.44 134.909 39.08 134.376 38.68C133.843 38.2533 133.536 37.7733 133.456 37.24C133.403 36.9733 133.403 36.6933 133.456 36.4C133.536 36.08 133.669 35.76 133.856 35.44C134.043 35.0933 134.269 34.7333 134.536 34.36C134.749 34.0667 134.989 33.88 135.256 33.8C135.523 33.72 135.829 33.7333 136.176 33.84C136.603 33.92 137.029 34.0667 137.456 34.28C137.909 34.4667 138.349 34.68 138.776 34.92C139.229 35.1333 139.696 35.3333 140.176 35.52C140.656 35.68 141.149 35.76 141.656 35.76C142.403 35.76 142.976 35.6533 143.376 35.44C143.803 35.2 144.016 34.88 144.016 34.48C144.016 34.1867 143.923 33.9467 143.736 33.76C143.576 33.5733 143.336 33.4133 143.016 33.28C142.723 33.12 142.376 32.9867 141.976 32.88C141.576 32.7733 141.136 32.6667 140.656 32.56C140.203 32.4267 139.736 32.2933 139.256 32.16C138.589 31.9733 137.949 31.7333 137.336 31.44C136.723 31.1467 136.163 30.7733 135.656 30.32C135.149 29.84 134.749 29.2667 134.456 28.6C134.163 27.9067 134.016 27.0667 134.016 26.08C134.016 24.7733 134.323 23.68 134.936 22.8C135.549 21.92 136.443 21.2533 137.616 20.8C138.789 20.32 140.216 20.08 141.896 20.08C142.376 20.08 142.856 20.1067 143.336 20.16C143.816 20.2133 144.283 20.3067 144.736 20.44C145.216 20.5733 145.683 20.7333 146.136 20.92C146.589 21.1067 147.043 21.3333 147.496 21.6C148.296 21.9733 148.709 22.48 148.736 23.12C148.763 23.76 148.536 24.4133 148.056 25.08C147.763 25.5333 147.456 25.8667 147.136 26.08C146.816 26.2667 146.483 26.32 146.136 26.24C145.709 26.1333 145.243 25.96 144.736 25.72C144.256 25.48 143.736 25.2533 143.176 25.04C142.643 24.8267 142.109 24.72 141.576 24.72C141.123 24.72 140.736 24.7867 140.416 24.92C140.096 25.0267 139.856 25.1867 139.696 25.4C139.536 25.5867 139.456 25.8133 139.456 26.08C139.456 26.4267 139.549 26.7067 139.736 26.92C139.949 27.1067 140.229 27.2667 140.576 27.4C140.923 27.5333 141.323 27.6533 141.776 27.76C142.229 27.8667 142.723 27.9733 143.256 28.08C143.976 28.2133 144.709 28.4 145.456 28.64C146.229 28.8533 146.923 29.1733 147.536 29.6C148.176 30.0267 148.683 30.6 149.056 31.32C149.456 32.04 149.656 32.9867 149.656 34.16C149.656 36.2667 148.923 37.88 147.456 39C145.989 40.12 143.896 40.68 141.176 40.68ZM155.136 40.36C154.176 40.36 153.483 40.2267 153.056 39.96C152.63 39.6667 152.363 39.2933 152.256 38.84C152.176 38.36 152.136 37.8533 152.136 37.32V14.28C152.136 13.7467 152.19 13.2533 152.296 12.8C152.403 12.3467 152.67 11.9867 153.096 11.72C153.523 11.4267 154.216 11.28 155.176 11.28C156.163 11.28 156.856 11.4267 157.256 11.72C157.683 12.0133 157.936 12.3867 158.016 12.84C158.123 13.2933 158.176 13.7867 158.176 14.32V22.48C158.656 21.9733 159.27 21.4933 160.016 21.04C160.79 20.5867 161.696 20.36 162.736 20.36C164.39 20.36 165.87 20.7867 167.176 21.64C168.51 22.4667 169.563 23.6133 170.336 25.08C171.136 26.5467 171.536 28.2267 171.536 30.12V37.36C171.536 37.8933 171.483 38.3867 171.376 38.84C171.27 39.2933 171.016 39.6667 170.616 39.96C170.216 40.2267 169.51 40.36 168.496 40.36C167.563 40.36 166.87 40.2267 166.416 39.96C165.99 39.6667 165.723 39.2933 165.616 38.84C165.536 38.36 165.496 37.8533 165.496 37.32V30.08C165.496 29.3067 165.363 28.6533 165.096 28.12C164.83 27.56 164.43 27.12 163.896 26.8C163.39 26.48 162.763 26.32 162.016 26.32C161.03 26.32 160.163 26.6267 159.416 27.24C158.696 27.8267 158.283 28.5467 158.176 29.4V37.36C158.176 37.8933 158.123 38.3867 158.016 38.84C157.91 39.2933 157.643 39.6667 157.216 39.96C156.816 40.2267 156.123 40.36 155.136 40.36ZM188.165 40.68C186.991 40.68 185.751 40.4933 184.445 40.12C183.138 39.7467 181.858 39.1867 180.605 38.44C179.351 37.6933 178.205 36.7467 177.165 35.6C176.151 34.4267 175.338 33.0667 174.725 31.52C174.138 29.9467 173.845 28.16 173.845 26.16C173.845 24.24 174.138 22.5333 174.725 21.04C175.338 19.52 176.151 18.2 177.165 17.08C178.178 15.96 179.311 15.04 180.565 14.32C181.818 13.5733 183.111 13.0267 184.445 12.68C185.778 12.3067 187.045 12.12 188.245 12.12C189.605 12.12 190.791 12.28 191.805 12.6C192.818 12.92 193.645 13.2533 194.285 13.6C194.925 13.92 195.325 14.1467 195.485 14.28C195.965 14.5733 196.418 14.9067 196.845 15.28C197.271 15.6533 197.498 16.1467 197.525 16.76C197.525 17.08 197.458 17.4 197.325 17.72C197.218 18.0133 197.045 18.3333 196.805 18.68C196.378 19.2933 195.965 19.7467 195.565 20.04C195.191 20.3067 194.805 20.44 194.405 20.44C194.085 20.44 193.778 20.36 193.485 20.2C193.218 20.04 192.871 19.8267 192.445 19.56C192.258 19.4267 191.991 19.2667 191.645 19.08C191.298 18.8667 190.831 18.68 190.245 18.52C189.658 18.3333 188.911 18.24 188.005 18.24C187.071 18.24 186.125 18.4133 185.165 18.76C184.231 19.08 183.365 19.5733 182.565 20.24C181.765 20.9067 181.125 21.76 180.645 22.8C180.165 23.8133 179.925 25 179.925 26.36C179.925 27.7733 180.165 28.9867 180.645 30C181.151 31.0133 181.805 31.8533 182.605 32.52C183.405 33.1867 184.271 33.6933 185.205 34.04C186.165 34.36 187.098 34.52 188.005 34.52C188.805 34.52 189.485 34.44 190.045 34.28C190.631 34.12 191.125 33.9333 191.525 33.72C191.951 33.48 192.311 33.2667 192.605 33.08C192.898 32.8933 193.191 32.72 193.485 32.56C193.805 32.4 194.125 32.32 194.445 32.32C194.818 32.32 195.191 32.4667 195.565 32.76C195.965 33.0533 196.365 33.52 196.765 34.16C197.005 34.5067 197.191 34.8533 197.325 35.2C197.458 35.52 197.511 35.84 197.485 36.16C197.485 36.72 197.271 37.1867 196.845 37.56C196.418 37.9067 195.965 38.2267 195.485 38.52C195.271 38.6267 194.858 38.8667 194.245 39.24C193.631 39.5867 192.818 39.9067 191.805 40.2C190.791 40.52 189.578 40.68 188.165 40.68ZM202.988 40.36C202.028 40.36 201.334 40.2267 200.908 39.96C200.481 39.6667 200.214 39.2933 200.108 38.84C200.028 38.36 199.988 37.8533 199.988 37.32V14.28C199.988 13.7467 200.041 13.2533 200.148 12.8C200.254 12.3467 200.521 11.9867 200.948 11.72C201.374 11.4267 202.068 11.28 203.028 11.28C204.014 11.28 204.708 11.4267 205.108 11.72C205.534 12.0133 205.788 12.3867 205.868 12.84C205.974 13.2933 206.028 13.7867 206.028 14.32V22.48C206.508 21.9733 207.121 21.4933 207.868 21.04C208.641 20.5867 209.548 20.36 210.588 20.36C212.241 20.36 213.721 20.7867 215.028 21.64C216.361 22.4667 217.414 23.6133 218.188 25.08C218.988 26.5467 219.388 28.2267 219.388 30.12V37.36C219.388 37.8933 219.334 38.3867 219.228 38.84C219.121 39.2933 218.868 39.6667 218.468 39.96C218.068 40.2267 217.361 40.36 216.348 40.36C215.414 40.36 214.721 40.2267 214.268 39.96C213.841 39.6667 213.574 39.2933 213.468 38.84C213.388 38.36 213.348 37.8533 213.348 37.32V30.08C213.348 29.3067 213.214 28.6533 212.948 28.12C212.681 27.56 212.281 27.12 211.748 26.8C211.241 26.48 210.614 26.32 209.868 26.32C208.881 26.32 208.014 26.6267 207.268 27.24C206.548 27.8267 206.134 28.5467 206.028 29.4V37.36C206.028 37.8933 205.974 38.3867 205.868 38.84C205.761 39.2933 205.494 39.6667 205.068 39.96C204.668 40.2267 203.974 40.36 202.988 40.36ZM238.421 40.32C237.434 40.32 236.701 40.1467 236.221 39.8C235.768 39.4533 235.541 39.0267 235.541 38.52L235.941 37.84C235.781 38.1067 235.474 38.44 235.021 38.84C234.568 39.2133 233.981 39.56 233.261 39.88C232.541 40.1733 231.648 40.32 230.581 40.32C229.354 40.32 228.181 40.0533 227.061 39.52C225.968 38.9867 224.994 38.2533 224.141 37.32C223.288 36.36 222.608 35.28 222.101 34.08C221.621 32.88 221.381 31.6133 221.381 30.28C221.381 28.9733 221.621 27.7333 222.101 26.56C222.608 25.36 223.288 24.3067 224.141 23.4C225.021 22.4667 226.008 21.7333 227.101 21.2C228.194 20.6667 229.354 20.4 230.581 20.4C231.568 20.4 232.408 20.5467 233.101 20.84C233.794 21.1067 234.368 21.4267 234.821 21.8C235.301 22.1733 235.661 22.5333 235.901 22.88L235.581 22.32C235.554 21.68 235.768 21.2 236.221 20.88C236.701 20.5333 237.448 20.36 238.461 20.36C239.421 20.36 240.101 20.5067 240.501 20.8C240.928 21.0933 241.181 21.48 241.261 21.96C241.368 22.44 241.421 22.9467 241.421 23.48V37.28C241.421 37.7867 241.368 38.28 241.261 38.76C241.181 39.24 240.928 39.6267 240.501 39.92C240.101 40.1867 239.408 40.32 238.421 40.32ZM231.461 34.36C232.154 34.36 232.781 34.1867 233.341 33.84C233.928 33.4667 234.381 32.9733 234.701 32.36C235.048 31.7467 235.221 31.0667 235.221 30.32C235.221 29.5467 235.048 28.8667 234.701 28.28C234.354 27.6667 233.888 27.1867 233.301 26.84C232.714 26.4667 232.074 26.28 231.381 26.28C230.608 26.28 229.914 26.4667 229.301 26.84C228.714 27.2133 228.234 27.7067 227.861 28.32C227.514 28.9333 227.341 29.6267 227.341 30.4C227.341 31.12 227.514 31.7867 227.861 32.4C228.234 32.9867 228.728 33.4667 229.341 33.84C229.981 34.1867 230.688 34.36 231.461 34.36ZM254.92 40.36C253.56 40.36 252.387 40.2133 251.4 39.92C250.44 39.6267 249.64 39.1733 249 38.56C248.36 37.9467 247.88 37.1733 247.56 36.24C247.267 35.28 247.12 34.1467 247.12 32.84V16.6C247.12 16.0667 247.16 15.5867 247.24 15.16C247.347 14.7333 247.613 14.3867 248.04 14.12C248.467 13.8267 249.16 13.68 250.12 13.68C251.08 13.68 251.773 13.8267 252.2 14.12C252.627 14.4133 252.88 14.7867 252.96 15.24C253.067 15.6933 253.12 16.1867 253.12 16.72V32.6C253.12 33.0267 253.147 33.3867 253.2 33.68C253.28 33.9467 253.387 34.1467 253.52 34.28C253.653 34.4133 253.84 34.5067 254.08 34.56C254.32 34.6133 254.613 34.64 254.96 34.64C255.547 34.64 256.067 34.6933 256.52 34.8C256.973 34.9067 257.32 35.1467 257.56 35.52C257.827 35.8933 257.96 36.52 257.96 37.4C257.96 38.36 257.813 39.0533 257.52 39.48C257.227 39.9067 256.84 40.16 256.36 40.24C255.907 40.32 255.427 40.36 254.92 40.36ZM245.88 20.68H250.28L255.8 20.52C256.307 20.52 256.787 20.5733 257.24 20.68C257.693 20.76 258.067 21.0133 258.36 21.44C258.653 21.8667 258.8 22.5733 258.8 23.56C258.8 24.4667 258.653 25.1333 258.36 25.56C258.093 25.9867 257.733 26.2667 257.28 26.4C256.827 26.5067 256.333 26.56 255.8 26.56L250.56 26.44H245.72C244.947 26.4133 244.4 26.1867 244.08 25.76C243.787 25.3067 243.64 24.56 243.64 23.52C243.64 22.56 243.827 21.8533 244.2 21.4C244.573 20.92 245.133 20.68 245.88 20.68Z" fill="black"/>
</svg>
