<svg width="57" height="56" viewBox="0 0 57 56" fill="none" xmlns="http://www.w3.org/2000/svg">
<path d="M55.9976 27.7029C55.9106 15.6827 53.6423 10.3946 49.6137 6.48596C45.4049 2.61836 38.5028 1 28.4988 1C19.3608 1 11.522 2.57398 7.49689 6.48596C3.82474 10.0549 1 15.1158 1 27.7029V47.7301C1 50.8777 1 52.4498 2.00714 53.4278C3.01429 54.4058 4.63328 54.4058 7.8747 54.4058H28.4988C41.4611 54.4058 46.7144 51.7451 50.0092 48.5484C53.7823 44.8877 56.0772 38.6943 55.9976 27.7029Z" fill="white" stroke="black" stroke-width="2"/>
<rect x="15.3481" y="24.1152" width="25.9058" height="22.3188" rx="11.1594" fill="#FFFC00" stroke="black" stroke-width="2"/>
<path fill-rule="evenodd" clip-rule="evenodd" d="M48.0289 25.8993C48.0289 38.5947 43.0459 42.8278 28.1013 42.8278C13.1568 42.8278 8.17383 38.5947 8.17383 25.8993C8.17383 13.2038 13.1568 8.9707 28.1013 8.9707C43.0459 8.9707 48.0289 13.2038 48.0289 25.8993Z" fill="#FFFC00" stroke="black" stroke-width="2" stroke-linecap="round" stroke-linejoin="round"/>
</svg>
